<?xml version="1.0" encoding="UTF-8"?>
<svg id="Layer_2" data-name="Layer 2" xmlns="http://www.w3.org/2000/svg" xmlns:xlink="http://www.w3.org/1999/xlink" viewBox="0 0 2710.17 1719.42">
  <defs>
    <style>
      .cls-1 {
        fill: url(#linear-gradient-2);
      }

      .cls-2 {
        fill: url(#linear-gradient-6);
      }

      .cls-3, .cls-4 {
        fill: #4d1f1f;
      }

      .cls-5 {
        fill: url(#linear-gradient-11);
      }

      .cls-6 {
        fill: url(#linear-gradient-10);
      }

      .cls-4 {
        fill-rule: evenodd;
      }

      .cls-7 {
        fill: url(#linear-gradient-5);
      }

      .cls-8 {
        clip-path: url(#clippath);
      }

      .cls-9 {
        fill: url(#linear-gradient-7);
      }

      .cls-10 {
        fill: url(#linear-gradient-9);
      }

      .cls-11 {
        fill: url(#linear-gradient-3);
      }

      .cls-12 {
        fill: url(#linear-gradient);
      }

      .cls-13 {
        fill: url(#linear-gradient-4);
      }

      .cls-14 {
        fill: url(#linear-gradient-8);
      }
    </style>
    <linearGradient id="linear-gradient" x1="0" y1="768.46" x2="2710.17" y2="768.46" gradientUnits="userSpaceOnUse">
      <stop offset="0" stop-color="#f5e847"/>
      <stop offset=".22" stop-color="#f2bb32"/>
      <stop offset=".4" stop-color="#f19d25"/>
      <stop offset=".5" stop-color="#f19220"/>
      <stop offset=".67" stop-color="#f2ac2b"/>
      <stop offset="1" stop-color="#f5e847"/>
    </linearGradient>
    <linearGradient id="linear-gradient-2" x1="1489.95" y1="1392.27" x2="2195.07" y2="1392.27" xlink:href="#linear-gradient"/>
    <linearGradient id="linear-gradient-3" x1="515.1" y1="1395.54" x2="1214.76" y2="1395.54" xlink:href="#linear-gradient"/>
    <linearGradient id="linear-gradient-4" x1="690.33" y1="1469.11" x2="1181.71" y2="1469.11" xlink:href="#linear-gradient"/>
    <linearGradient id="linear-gradient-5" x1="1529.17" y1="1465.67" x2="2019.84" y2="1465.67" xlink:href="#linear-gradient"/>
    <linearGradient id="linear-gradient-6" x1="1183.27" y1="1365.12" x2="1526.9" y2="1365.12" xlink:href="#linear-gradient"/>
    <linearGradient id="linear-gradient-7" x1="1211.91" y1="1365.12" x2="1498.26" y2="1365.12" xlink:href="#linear-gradient"/>
    <linearGradient id="linear-gradient-8" x1="1204.75" y1="1365.12" x2="1491.1" y2="1365.12" xlink:href="#linear-gradient"/>
    <linearGradient id="linear-gradient-9" x1="1204.75" y1="1365.12" x2="1491.1" y2="1365.12" xlink:href="#linear-gradient"/>
    <clipPath id="clippath">
      <circle class="cls-10" cx="1347.93" cy="1365.12" r="143.18"/>
    </clipPath>
    <linearGradient id="linear-gradient-10" x1="725.92" y1="1662.91" x2="1980.31" y2="1662.91" xlink:href="#linear-gradient"/>
    <linearGradient id="linear-gradient-11" x1="415.18" y1="1017.39" x2="2406.5" y2="1017.39" xlink:href="#linear-gradient"/>
  </defs>
  <g id="Layer_1-2" data-name="Layer 1">
    <g>
      <g>
        <path class="cls-12" d="m409.12,1536.93S54.2,1391.22,91.56,894.34c0,0,48.07-405.16,588.59-468.28,29.42-3.44,51.18,26.42,39.11,53.47-17.29,38.76-35.54,95.31-39.28,166.36,0,0,661.27-1146.95,1333.75,14.94,0,0,11.35-73.78-37.66-186.71-10.54-24.28,9.2-50.85,35.52-48.02,151.8,16.29,537.16,92.86,599.9,451.41,0,0,110.46,396.02-309.03,659.4,0,0,489.82-169.12,395.69-698.2-77.12-433.49-542.49-506.79-708.13-519.13-36.33-2.71-70.13-19.71-93.83-47.37-116.83-136.3-515.02-508.86-1072.44-50.37-35.01,28.8-77.33,47.37-122.19,53.95C519.57,302.49,33.38,424.42.03,967.19c0,0-11.21,444.58,409.09,569.74Z"/>
        <g>
          <path class="cls-1" d="m1526.25,1312.93c409.1,39.92,668.82,224,668.82,224-242.47-189.57-483.95-270.38-705.12-289.31,15.83,18.18,28.02,39.56,35.4,62.34.32.98.6,1.98.9,2.97Z"/>
          <path class="cls-11" d="m1214.76,1254.15c-410.47,53.56-699.67,282.78-699.67,282.78,238.85-131.73,464.27-196.81,667.82-220.61.28-.99.54-1.99.84-2.98,6.52-21.62,16.96-41.48,31.01-59.2Z"/>
          <path class="cls-13" d="m690.33,1569.14c174.63-90.57,340.17-138.8,491.39-159.59-3.34-13.09-5.18-26.69-5.48-40.48-288.43,52.89-485.91,200.07-485.91,200.07Z"/>
          <path class="cls-7" d="m1533.99,1362.2v.09c.03.94.07,1.88.07,2.83,0,13.88-1.66,27.81-4.88,41.42,301.39,36.45,490.67,162.61,490.67,162.61-165.82-121.92-331.06-183.39-485.86-206.95Z"/>
        </g>
        <path class="cls-2" d="m1526.79,1361.1c-.39-17.04-3.24-33.47-8.25-48.93-8.01-24.75-21.5-47.03-39.02-65.44-31.3-32.89-75.46-53.42-124.44-53.42-51.93,0-98.45,23.08-129.95,59.49-15.57,18-27.47,39.25-34.53,62.61-4.75,15.74-7.33,32.42-7.33,49.7,0,.89.05,1.77.07,2.66.21,14.07,2.09,27.74,5.49,40.8,19.25,73.85,86.38,128.36,166.25,128.36s148.72-55.95,166.95-131.26c3.15-13.01,4.86-26.58,4.86-40.55,0-1.35-.07-2.68-.1-4.02Zm-171.71,161.51c-72.43,0-133.56-49.17-151.87-115.86-3.62-13.2-5.6-27.08-5.62-41.41,0-.07,0-.15,0-.22,0-17.99,3.07-35.26,8.65-51.37,8.46-24.43,22.75-46.14,41.23-63.47,28.18-26.42,66.03-42.65,107.61-42.65,38.85,0,74.44,14.17,101.93,37.58,20.46,17.41,36.44,39.93,45.9,65.59,5.59,15.16,8.87,31.41,9.51,48.33.08,1.99.15,3.99.15,6,0,13.45-1.7,26.5-4.89,38.97-17.39,68.05-79.21,118.52-152.61,118.52Z"/>
        <circle class="cls-9" cx="1355.09" cy="1365.12" r="143.18"/>
        <g>
          <circle class="cls-14" cx="1347.93" cy="1365.12" r="143.18"/>
          <g class="cls-8">
            <g>
              <path class="cls-3" d="m1277.25,1710.95c.79-19.44,1.7-41.27,2.56-63.09.42-10.64.76-21.29,1.17-31.93.87-22.91,1.76-45.82,2.64-68.72.39-10.1.76-20.2,1.14-30.3.7-18.31,1.36-36.62,2.16-54.92.14-3.16-.49-5.7-2.64-8.15-4.44-5.07-9.57-9.33-14.98-13.25-17.08-12.37-25.56-29.53-25.54-50.15.03-30.66,9.33-58.79,26.58-84.18,3-4.42,6.78-8.22,11.21-11.29,9.91-6.84,20.09-5.75,29.74,3.18,6.31,5.84,11.07,12.85,15.03,20.41,10.31,19.66,16.83,40.54,18.71,62.65,1.78,20.89-3.72,39.62-19.36,54.42-4.24,4.02-9.17,7.31-13.74,10.98-2.76,2.21-5.08,4.85-7.48,7.44-2.09,2.24-2.73,4.65-2.51,7.64.44,6.12.69,12.25.91,18.39.63,17.41,1.18,34.82,1.81,52.23.69,18.94,1.44,37.88,2.16,56.82.91,23.9,1.82,47.8,2.72,71.71.72,19.03,1.52,38.06,2.1,57.09.24,8.01-5.19,14.83-12.76,16.76-7.84,1.99-16.03-1.57-19.83-8.63-1.6-2.97-1.94-5.32-1.79-15.07Z"/>
              <path class="cls-3" d="m1414.5,1329.32c0,19.41,0,38.83,0,58.24,0,3.07,1.19,4.6,3.38,4.53,2.12-.06,3.44-1.76,3.47-4.63.08-10.02-.08-20.06.24-30.07.43-13.18.08-26.37.53-39.54.25-7.3.42-14.62,1.48-21.87.3-2.06.29-5.18,2.75-5.31,2.69-.13,2.54,3.04,2.92,5.05,1.22,6.41,1.16,12.94,1.42,19.42.47,11.54.48,23.11.75,34.66.3,12.82.69,25.63,1.03,38.44.06,2.27.88,3.89,3.44,3.95,2.21.04,3.34-1.24,3.37-3.94.06-5.78.02-11.56.07-17.34.18-22.39.37-44.79.6-67.18.04-3.43.39-6.85,1.31-10.18.36-1.28.63-2.94,2.25-3.03,1.56-.08,2.14,1.49,2.73,2.68,1.29,2.64,1.69,5.54,1.89,8.41.64,9.09,1.1,18.19,1.64,27.29,1.74,29.39,2.02,58.82,2.28,88.25.06,6.18-1.78,11.29-6.4,15.44-3.02,2.71-5.89,5.6-8.86,8.38-7.12,6.65-9.68,14.89-8.98,24.48.64,8.73.94,17.48,1.37,26.23,1.05,21,2.17,42,3.11,63,.81,18.12,1.73,36.24,1.88,54.4.18,22.66.69,45.32,1.12,67.98.25,13.18.73,26.35.87,39.53.11,10.61-8.28,18.75-18.55,18.37-9.33-.34-17.11-8.13-16.85-17.45.53-18.85,1.35-37.7,2.04-56.55.21-5.68.43-11.37.62-17.05.79-23,1.57-46.01,2.37-69.01.51-14.61,1.07-29.23,1.53-43.84.73-22.83,1.36-45.66,2.1-68.48.26-8.03-2.17-14.81-8.18-20.38-4.17-3.86-7.95-8.14-11.89-12.23-3.67-3.81-5.73-8.19-5.46-13.64.95-18.57,1.8-37.14,2.67-55.71.41-8.75.72-17.5,1.18-26.24.66-12.61,1.4-25.23,2.14-37.84.06-1.07.31-2.15.66-3.17.42-1.26.81-2.92,2.45-2.85,1.6.06,1.94,1.72,2.34,2.99.93,2.96.98,6.06,1.18,9.11.37,5.58.62,11.18.71,16.77.26,15.44.28,30.88.67,46.32.18,7.31.29,14.62.39,21.93.04,2.88,1.17,4.38,3.26,4.45,2.27.08,3.5-1.43,3.55-4.41.41-21.67.69-43.33,1.26-65,.24-9.19.19-18.42,1.41-27.56.24-1.83.44-4.44,2.62-4.52,2.3-.08,2.38,2.58,2.78,4.36.69,3,.89,6.06.88,9.14-.03,8.4-.01,16.8-.01,25.2.13,0,.27,0,.4,0Z"/>
            </g>
          </g>
        </g>
      </g>
      <path class="cls-6" d="m725.92,1607.11h16.28l13.41,59.09,13.41-59.09h16.28l-22.45,87.05h-14.49l-22.45-87.05Zm70.97,85.16c-3.58-1.86-6.32-4.54-8.23-8.05-1.92-3.51-2.87-7.72-2.87-12.63v-15.92c0-5.19.92-9.62,2.75-13.29,1.84-3.67,4.49-6.47,7.96-8.41,3.47-1.93,7.66-2.9,12.57-2.9s8.88,1.06,12.27,3.17c3.39,2.12,5.98,5.2,7.75,9.25,1.78,4.05,2.66,8.95,2.66,14.7v10.95h-34.6v-11.07h19.93v-4.43c0-2.63-.75-4.72-2.24-6.25-1.5-1.54-3.43-2.31-5.78-2.31-2.67,0-4.77.87-6.29,2.6-1.52,1.73-2.27,4.18-2.27,7.33v16.88c0,3.04.78,5.36,2.33,6.98,1.56,1.62,3.75,2.42,6.59,2.42,2.16,0,3.94-.54,5.36-1.62,1.42-1.08,2.46-2.65,3.14-4.73l13.11,4.97c-1.2,5.03-3.6,8.81-7.22,11.34-3.61,2.54-8.27,3.8-13.98,3.8-5.07,0-9.39-.93-12.96-2.78Zm53.4.27c-2.45-1.72-4.34-4.22-5.66-7.52-1.32-3.29-1.97-7.23-1.97-11.82v-20.17c0-4.63.66-8.6,1.97-11.91,1.32-3.31,3.21-5.81,5.69-7.51,2.47-1.7,5.47-2.55,8.98-2.55,2.99,0,5.74.99,8.23,2.96,2.5,1.98,4.5,4.74,6.02,8.29l-1.26,10.78c0-1.63-.27-3.02-.81-4.16-.54-1.14-1.33-2.02-2.36-2.64-1.04-.62-2.31-.93-3.83-.93-2.2,0-3.94.78-5.24,2.33-1.3,1.56-1.95,3.73-1.95,6.53v17.9c0,2.75.64,4.89,1.92,6.4,1.28,1.52,3.03,2.28,5.27,2.28,1.52,0,2.79-.31,3.83-.93,1.04-.62,1.82-1.5,2.36-2.63.54-1.14.81-2.52.81-4.16l.84,11.31c-1.08,3.39-2.85,6.03-5.3,7.9-2.46,1.87-5.3,2.81-8.53,2.81-3.55,0-6.56-.86-9.01-2.57Zm-.27,22.84c-3.47-2.7-5.63-6.69-6.46-12l15.09-4.67c.44,2,1.26,3.52,2.45,4.58,1.2,1.05,2.67,1.58,4.43,1.58,2.08,0,3.72-.66,4.94-1.97,1.22-1.32,1.82-3.09,1.82-5.33v-65.56h15.69v64.9c0,4.75-.94,8.8-2.81,12.15-1.88,3.35-4.59,5.92-8.14,7.69-3.55,1.78-7.82,2.66-12.81,2.66-5.99,0-10.72-1.34-14.19-4.04Zm96.51-53.19c-2.36,2.08-3.53,5.01-3.53,8.8,0,3.19,1.05,5.67,3.14,7.42,2.1,1.76,5.06,2.63,8.89,2.63s7.11-1.29,9.85-3.86c2.73-2.58,4.82-6.28,6.25-11.11,1.44-4.83,2.16-10.58,2.16-17.24h14.91c0,9.66-1.39,17.95-4.16,24.87-2.78,6.93-6.85,12.21-12.21,15.87-5.37,3.65-11.82,5.48-19.37,5.48-5.15,0-9.55-.94-13.2-2.81-3.65-1.87-6.44-4.62-8.35-8.23-1.92-3.61-2.87-7.95-2.87-13.02,0-6.82,2.05-12.3,6.14-16.43,4.09-4.13,9.85-6.52,17.27-7.16l5.03,11.67c-4.27,0-7.58,1.04-9.94,3.11Zm2.27-2.51c-2.91-3.95-5.27-7.51-7.06-10.68-1.8-3.17-3.2-6.47-4.22-9.88-1.02-3.41-1.53-6.93-1.53-10.57,0-7.02,1.97-12.47,5.9-16.34,3.93-3.87,9.45-5.81,16.55-5.81s12.53,1.88,16.4,5.66c3.87,3.77,5.81,9.07,5.81,15.89v4.91h-15.5v-4.91c0-2.83-.6-5.04-1.8-6.61-1.19-1.58-2.83-2.36-4.91-2.36-2.31,0-4.13.84-5.45,2.51-1.32,1.68-1.97,4.03-1.97,7.06,0,2.36.44,4.85,1.32,7.48.88,2.63,2.16,5.36,3.83,8.17,1.68,2.81,3.71,5.8,6.11,8.95l31.37,41.01h-18.32l-26.52-34.48Zm81.72-52.56h15.8l26.46,62.32-1.56,1.98v-64.3h14.61v86.99h-15.98l-26.22-60.17,1.44-1.97v62.14h-14.55v-86.99Zm78.84,85.37c-3.39-1.72-5.98-4.22-7.75-7.52-1.78-3.29-2.66-7.25-2.66-11.88v-20.36c0-4.59.89-8.51,2.66-11.76,1.78-3.25,4.36-5.72,7.75-7.42,3.39-1.7,7.48-2.55,12.27-2.55s8.83.85,12.24,2.55c3.41,1.7,6.01,4.17,7.78,7.42,1.78,3.25,2.66,7.18,2.66,11.76v20.54c0,4.59-.89,8.51-2.66,11.76-1.78,3.25-4.37,5.74-7.78,7.46-3.41,1.72-7.49,2.57-12.24,2.57s-8.88-.86-12.27-2.57Zm17.57-14.04c1.26-1.38,1.89-3.3,1.89-5.78v-19.4c0-2.47-.63-4.38-1.89-5.72-1.26-1.34-3.02-2.01-5.3-2.01s-4.04.68-5.3,2.04c-1.26,1.36-1.89,3.25-1.89,5.69v19.4c0,2.51.62,4.45,1.86,5.81,1.24,1.36,3.01,2.04,5.33,2.04s4.04-.69,5.3-2.07Zm30.21-46.43h15.63v62.14h-15.63v-62.14Zm30.17,21.31c0-2.47-.65-4.38-1.95-5.72-1.3-1.34-3.12-2-5.48-2s-4.03.67-5.27,2c-1.24,1.34-1.85,3.26-1.85,5.78l-1.26-10.53c1.55-3.87,3.59-6.82,6.11-8.83,2.51-2.02,5.49-3.02,8.92-3.02,5.19,0,9.21,1.8,12.06,5.39,2.85,3.59,4.28,8.64,4.28,15.15v42.63h-15.56v-40.83Zm66.87,2.16v14.97h-37.24v-14.97h37.24Zm5.39-48.37h16.28l13.41,59.09,13.41-59.09h16.28l-22.45,87.05h-14.49l-22.45-87.05Zm70.97,85.16c-3.58-1.86-6.32-4.54-8.23-8.05-1.92-3.51-2.87-7.72-2.87-12.63v-15.92c0-5.19.92-9.62,2.75-13.29,1.84-3.67,4.49-6.47,7.96-8.41,3.47-1.93,7.66-2.9,12.57-2.9s8.88,1.06,12.27,3.17c3.39,2.12,5.98,5.2,7.75,9.25,1.78,4.05,2.66,8.95,2.66,14.7v10.95h-34.6v-11.07h19.93v-4.43c0-2.63-.75-4.72-2.24-6.25-1.5-1.54-3.43-2.31-5.78-2.31-2.67,0-4.77.87-6.29,2.6-1.52,1.73-2.27,4.18-2.27,7.33v16.88c0,3.04.78,5.36,2.33,6.98,1.56,1.62,3.75,2.42,6.59,2.42,2.16,0,3.94-.54,5.36-1.62,1.42-1.08,2.46-2.65,3.14-4.73l13.11,4.97c-1.2,5.03-3.6,8.81-7.22,11.34-3.61,2.54-8.27,3.8-13.98,3.8-5.07,0-9.39-.93-12.96-2.78Zm53.4.27c-2.45-1.72-4.34-4.22-5.66-7.52-1.32-3.29-1.97-7.23-1.97-11.82v-20.17c0-4.63.66-8.6,1.97-11.91,1.32-3.31,3.21-5.81,5.69-7.51,2.47-1.7,5.47-2.55,8.98-2.55,2.99,0,5.74.99,8.23,2.96,2.5,1.98,4.5,4.74,6.02,8.29l-1.26,10.78c0-1.63-.27-3.02-.81-4.16-.54-1.14-1.33-2.02-2.36-2.64-1.04-.62-2.31-.93-3.83-.93-2.2,0-3.94.78-5.24,2.33-1.3,1.56-1.95,3.73-1.95,6.53v17.9c0,2.75.64,4.89,1.92,6.4,1.28,1.52,3.03,2.28,5.27,2.28,1.52,0,2.79-.31,3.83-.93,1.04-.62,1.82-1.5,2.36-2.63.54-1.14.81-2.52.81-4.16l.84,11.31c-1.08,3.39-2.85,6.03-5.3,7.9-2.46,1.87-5.3,2.81-8.53,2.81-3.55,0-6.56-.86-9.01-2.57Zm-.27,22.84c-3.47-2.7-5.63-6.69-6.46-12l15.09-4.67c.44,2,1.26,3.52,2.45,4.58,1.2,1.05,2.67,1.58,4.43,1.58,2.08,0,3.72-.66,4.94-1.97,1.22-1.32,1.82-3.09,1.82-5.33v-65.56h15.69v64.9c0,4.75-.94,8.8-2.81,12.15-1.88,3.35-4.59,5.92-8.14,7.69-3.55,1.78-7.82,2.66-12.81,2.66-5.99,0-10.72-1.34-14.19-4.04Zm81.06-108.33h15.45v87.11h-15.45v-87.11Zm6.59,36.16h22.93c1.48,0,2.77-.33,3.89-.99,1.12-.66,1.97-1.58,2.55-2.78.58-1.2.87-2.6.87-4.19v-4.91c0-1.68-.29-3.14-.87-4.4-.58-1.26-1.42-2.22-2.51-2.88-1.1-.66-2.41-.99-3.92-.99h-22.93v-15.03h23.11c4.75,0,8.87.92,12.36,2.75,3.49,1.83,6.18,4.48,8.05,7.93,1.87,3.45,2.81,7.52,2.81,12.19v5.09c0,4.75-.94,8.87-2.81,12.36-1.87,3.49-4.56,6.18-8.05,8.05-3.49,1.87-7.61,2.81-12.36,2.81h-23.11v-15.03Zm15.2,12.33l15.57-2.75,18.62,41.37h-17.84l-16.34-38.61Zm52.65,36.73c-3.58-1.86-6.32-4.54-8.23-8.05-1.92-3.51-2.87-7.72-2.87-12.63v-15.92c0-5.19.92-9.62,2.75-13.29,1.84-3.67,4.49-6.47,7.96-8.41,3.47-1.93,7.66-2.9,12.57-2.9s8.88,1.06,12.27,3.17c3.39,2.12,5.98,5.2,7.75,9.25,1.78,4.05,2.66,8.95,2.66,14.7v10.95h-34.6v-11.07h19.93v-4.43c0-2.63-.75-4.72-2.24-6.25-1.5-1.54-3.43-2.31-5.78-2.31-2.67,0-4.77.87-6.29,2.6-1.52,1.73-2.27,4.18-2.27,7.33v16.88c0,3.04.78,5.36,2.33,6.98,1.56,1.62,3.75,2.42,6.59,2.42,2.16,0,3.94-.54,5.36-1.62,1.42-1.08,2.46-2.65,3.14-4.73l13.11,4.97c-1.2,5.03-3.6,8.81-7.22,11.34-3.61,2.54-8.27,3.8-13.98,3.8-5.07,0-9.39-.93-12.96-2.78Zm55.29,1.02c-3.31-1.18-6.08-2.9-8.29-5.18-2.21-2.27-3.76-4.99-4.64-8.14l12.63-6.53c1.28,2.31,2.99,4.12,5.15,5.42,2.16,1.3,4.59,1.95,7.31,1.95,2.47,0,4.41-.47,5.81-1.41,1.4-.94,2.1-2.17,2.1-3.68,0-1.44-.43-2.54-1.29-3.32-.86-.78-1.92-1.38-3.17-1.79-1.26-.42-3.06-.89-5.42-1.41-.48-.12-.99-.25-1.53-.39-.54-.14-1.11-.27-1.71-.39-.12-.08-.25-.13-.39-.15-.14-.02-.29-.05-.45-.09-3.47-.84-6.37-1.82-8.71-2.93-2.33-1.12-4.29-2.88-5.86-5.3-1.58-2.41-2.36-5.66-2.36-9.73s.87-7.36,2.6-10.24c1.74-2.87,4.25-5.08,7.54-6.62,3.29-1.53,7.18-2.31,11.65-2.31,3.83,0,7.26.57,10.3,1.71,3.03,1.14,5.57,2.78,7.63,4.91,2.06,2.13,3.54,4.74,4.46,7.81l-12.57,6.23c-1.04-2.03-2.41-3.61-4.13-4.73-1.72-1.12-3.65-1.68-5.81-1.68-2.31,0-4.12.41-5.42,1.23-1.3.82-1.95,1.97-1.95,3.44,0,1.28.45,2.31,1.35,3.09.9.78,2.03,1.39,3.41,1.82,1.38.44,3.32.9,5.84,1.38.12.04.28.08.48.12.2.04.38.06.54.06.08.08.16.12.24.12s.16.02.24.06c3.95.84,7.18,1.77,9.7,2.78,2.51,1.02,4.65,2.8,6.41,5.33,1.76,2.54,2.63,6.1,2.63,10.68,0,4.03-.92,7.52-2.75,10.45-1.83,2.93-4.51,5.2-8.02,6.79-3.51,1.6-7.6,2.4-12.27,2.4-4.19,0-7.94-.59-11.26-1.77Zm41.19-61.28h29.22v13.77h-29.22v-13.77Zm9.7,58.28c-2.59-2.77-3.89-6.87-3.89-12.3v-64.06h15.63v60.82c0,1.48.32,2.6.96,3.35.64.76,1.53,1.14,2.69,1.14h4.13v15.2h-7.37c-5.51,0-9.56-1.39-12.15-4.16Zm33.5.09c-2.85-3.11-4.28-7.72-4.28-13.83s1.79-11.17,5.39-14.49c3.59-3.31,8.92-4.97,15.98-4.97h10.06l.84,12.15h-10.48c-2.44,0-4.28.61-5.54,1.82-1.26,1.22-1.89,3.04-1.89,5.48,0,1.92.58,3.35,1.74,4.31,1.16.96,2.89,1.44,5.21,1.44,3.24,0,5.67-.54,7.31-1.62,1.63-1.08,2.45-2.69,2.45-4.85l1.14,7.12c-.16,2.64-.93,4.85-2.31,6.65-1.38,1.79-3.17,3.15-5.39,4.07-2.21.92-4.7,1.38-7.45,1.38-5.67,0-9.93-1.56-12.78-4.67Zm26.79-38.26c0-2.23-.7-3.96-2.09-5.18-1.4-1.22-3.38-1.82-5.93-1.82-1.88,0-3.58.42-5.12,1.26-1.54.84-2.75,2-3.62,3.47l-12.15-4.97c1.24-4.35,3.69-7.75,7.37-10.21,3.67-2.45,8.24-3.68,13.71-3.68,4.67,0,8.67.83,12,2.49,3.33,1.66,5.88,4.04,7.63,7.15,1.76,3.11,2.63,6.86,2.63,11.26v42.26h-14.43v-42.03Zm44,21.97c0,2.27.6,4.02,1.8,5.24,1.2,1.22,2.95,1.81,5.27,1.77,2.27.04,4-.58,5.18-1.85,1.18-1.28,1.77-3.09,1.77-5.45l.84,9.76c-1.08,3.55-2.74,6.36-5,8.41-2.26,2.06-5.04,3.08-8.35,3.08-5.55,0-9.77-1.76-12.66-5.27-2.89-3.51-4.34-8.64-4.34-15.39v-42.39h15.5v42.09Zm14.01-42.09h15.45v62.14h-15.45v-62.14Zm29.51,0h16.16v62.14h-16.16v-62.14Zm29.99,15.03c-.92-.2-1.93-.3-3.05-.3-3.39,0-6.04,1.06-7.93,3.17-1.9,2.12-2.85,5.05-2.85,8.8l-1.26-15.86c1.76-3.71,4.02-6.62,6.79-8.71,2.77-2.1,5.82-3.14,9.13-3.14,1.28,0,2.44.21,3.5.63,1.05.42,1.97,1.03,2.72,1.82l-4.73,14.55c-.64-.44-1.42-.76-2.34-.96Zm17.64,43.34c-2.85-3.11-4.28-7.72-4.28-13.83s1.79-11.17,5.39-14.49c3.59-3.31,8.92-4.97,15.98-4.97h10.06l.84,12.15h-10.48c-2.44,0-4.28.61-5.54,1.82-1.26,1.22-1.89,3.04-1.89,5.48,0,1.92.58,3.35,1.74,4.31,1.16.96,2.89,1.44,5.21,1.44,3.24,0,5.67-.54,7.31-1.62,1.63-1.08,2.45-2.69,2.45-4.85l1.14,7.12c-.16,2.64-.93,4.85-2.31,6.65-1.38,1.79-3.17,3.15-5.39,4.07-2.21.92-4.7,1.38-7.45,1.38-5.67,0-9.93-1.56-12.78-4.67Zm26.79-38.26c0-2.23-.7-3.96-2.09-5.18-1.4-1.22-3.38-1.82-5.93-1.82-1.88,0-3.58.42-5.12,1.26-1.54.84-2.75,2-3.62,3.47l-12.15-4.97c1.24-4.35,3.69-7.75,7.37-10.21,3.67-2.45,8.24-3.68,13.71-3.68,4.67,0,8.67.83,12,2.49,3.33,1.66,5.88,4.04,7.63,7.15,1.76,3.11,2.63,6.86,2.63,11.26v42.26h-14.43v-42.03Zm28.5-20.12h15.63v62.14h-15.63v-62.14Zm30.17,21.31c0-2.47-.65-4.38-1.95-5.72-1.3-1.34-3.12-2-5.48-2s-4.03.67-5.27,2c-1.24,1.34-1.85,3.26-1.85,5.78l-1.26-10.53c1.55-3.87,3.59-6.82,6.11-8.83,2.51-2.02,5.49-3.02,8.92-3.02,5.19,0,9.21,1.8,12.06,5.39,2.85,3.59,4.28,8.64,4.28,15.15v42.63h-15.56v-40.83Zm24.84-21.31h29.22v13.77h-29.22v-13.77Zm9.7,58.28c-2.59-2.77-3.89-6.87-3.89-12.3v-64.06h15.63v60.82c0,1.48.32,2.6.96,3.35.64.76,1.53,1.14,2.69,1.14h4.13v15.2h-7.37c-5.51,0-9.56-1.39-12.15-4.16Z"/>
      <path class="cls-5" d="m1567.52,961.83c34.36,3.08,58.35-39.88,63.64-49.48,2.93-5.78,9.14-7.64,14.34-7.17,6.79.61,13.23,5.21,12.58,12.41-.07.8-.54,1.56-.62,2.36-12.12,40.8-44.91,96.67-96.05,92.08-26.37-2.36-77.32-22.64-85.71-23.39-4.39-.4-12.55,14.18-28.93,12.71-13.19-1.18-21.7-9.6-20.41-23.98,2.01-22.37,96.13-88.45,116.6-105.55-6.14-3.37-13.99-5.69-21.58-6.37-18.78-1.68-38.38,5.82-40.31,27.4-1.79,19.98-18.49,30.97-32.87,29.68-13.59-1.22-28.96-13.88-26.6-40.25,3.3-36.76,37.37-61.9,80.52-58.03,22.38,2,47.67,11.92,68.44,13.78,15.58,1.4,24.37-2.25,31.56-1.6,11.99,1.08,20.07,14.29,18.99,26.27-2.65,29.57-63.98,71.2-84.4,87.89,15.67,9.46,27.62,10.93,30.81,11.22Zm-634.47-83.1c13.46-4.01,27.4.63,30.94,12.55.92,3.08,1.18,6.76.28,10.8-1.13,7.45-9.94,72.02-3.08,95.09,1.26,4.23,3.74,9.77,8.74,8.28,13.46-4.01,20.24-52.91,21.23-63.66.59-6.45,5.29-10.36,10.67-11.97,6.54-1.95,14.22-.05,16.28,6.87.23.77.46,1.54.3,2.42,4.22,42.28-5.98,106.42-48.66,119.13-19.99,5.95-35.57-2.8-45.84-19-11.77,22.34-30.29,41.67-53.74,48.65-32.68,9.73-57.58-9.22-66.51-39.21-15.11-50.75,15.96-136.18,72.86-153.12,10.77-3.21,24.91-4.91,36.74-1.73,5.2-7.83,12.48-12.92,19.78-15.1Zm-26.36,97c-1.24-16.79-1.24-32.28-.87-43.69-30.62,16.65-51.38,77.66-45.89,96.12,1.72,5.77,6.71,8.47,12.09,6.87,13.46-4.01,26.74-33.91,34.67-59.29Zm227.3,179.95c-41.65,6.32-64.8-20.6-69.43-51.14-7.34-48.39,38.1-61.78,81.82-83.83.38-8.17.77-16.35,1.09-24.92-14.03,17.14-32.76,30.13-54.17,33.38-33.71,5.12-55.75-17.1-60.45-48.04-7.95-52.35,34.64-132.67,93.74-141.63,8.73-1.32,19.28-1.3,28.94.88,4.28-3.9,9.99-6.38,16.73-7.41,17.45-2.65,32.56,6.01,35.27,23.86,3.07,20.23-.21,73.47-5.62,123.39,19.93-23.72,29.11-51.49,36.18-79.75,1.48-6.31,7.06-9.59,12.22-10.38,6.74-1.02,14.09,1.92,15.17,9.06.12.79.24,1.59-.04,2.44-3.71,69.14-35.05,105.95-69.34,128.6-1.37,12.38-2.91,23.57-4.37,32.72-11.92,71.19-29.18,88.42-57.74,92.76Zm-42.2-187.14c.9,5.95,5.07,9.37,10.62,8.53,15.07-2.29,34.14-34.4,45.32-59.63-.12-14.18-.34-26.32-.66-36.42-31.02,14.85-58.06,69.27-55.29,87.51Zm51.61,88.74c-25.15,10.72-43.41,18.76-41.12,33.83,1.92,12.69,16.25,16.2,21.41,15.42,9.91-1.51,15.81-21.47,19.71-49.25Zm154.79-204.26c6.85-22.71,22.18-32.07,36.62-32.57,13.63-.47,25.95,7.54,26.37,19.97.11,3.21-.57,6.84-2.45,10.52-2.98,6.93-27.8,67.18-26.98,91.24.15,4.41,1.16,10.4,6.37,10.22,14.03-.48,32.94-46.09,36.6-56.25,2.6-6.11,8.13-8.71,13.34-8.89,7.22-.25,13.77,3.54,14.02,10.76.03.8.06,1.6-.32,2.42-6.59,41.97-32.65,101.47-77.15,103-29.27,1-42.56-23.83-43.61-54.3-1.28-37.28,13.62-82.75,17.17-96.12Zm450.29,150.89c6.23-24.49,37.48-72.43,39.45-80.2.3-1.16.21-2.43-1.35-2.83-6.61-1.68-35.12,22.52-60.63,47.91-17.29,17.54-32.75,35.96-42.03,46.43-2.67,8.84-5.13,15.25-16.01,12.48-10.89-2.77-25.43-13.92-17.52-45.03,12.07-47.43,74.52-135.03,116.66-206.27,10.09-16.89,29.37-21.09,44.54-17.23,13.22,3.36,21.65,12.55,18.58,24.6-.79,3.11-2.17,6.9-5.11,10.29-25.91,30.25-54.98,71.28-79.86,110.49,26.85-20.9,55.3-31.87,80.19-25.54,20.99,5.34,32.31,21.06,26.87,42.44-6.23,24.49-35.77,60.86-40.42,79.13-1.19,4.67-1.6,11.18,3.45,12.47,12.83,3.26,43.84-35.62,50.2-44.35,4.2-5.14,10.24-6.09,15.3-4.8,6.61,1.68,12.23,7.25,10.45,14.25-.2.78-.39,1.56-.98,2.23-18.07,38.45-70.22,85.62-114.16,74.44-28.38-7.22-32.26-32.63-27.61-50.91Zm340.1-28.47c12.93,5.47,20.74,17.91,15.89,29.37-1.25,2.96-3.39,5.97-6.65,8.52-5.61,5.03-53.48,49.25-62.86,71.42-1.72,4.07-3.32,9.92,1.48,11.95,12.93,5.47,49.27-27.95,56.87-35.62,4.56-4.6,10.67-4.64,15.84-2.45,6.28,2.66,11,9.01,8.19,15.65-.31.74-.62,1.48-1.31,2.06-23.64,35.3-72.3,78.31-113.32,60.97-19.21-8.12-25.67-24.79-23.29-43.81-23.29,9.75-49.87,12.89-72.41,3.36-31.4-13.27-38.56-43.74-26.38-72.56,20.62-48.77,98.93-94.93,153.61-71.81,10.35,4.37,22.34,12.06,29.45,22.03,8.99-2.73,17.85-2.04,24.86.93Zm-82.04,58.08c9.73-13.74,19.57-25.69,27.11-34.27-34.22-6.63-89.04,27.25-96.54,44.98-2.34,5.54-.21,10.8,4.96,12.99,12.93,5.47,42.2-9.16,64.46-23.71Zm166.77,186.47c-11.86-7.51-17.52-21.07-10.86-31.58,1.72-2.71,4.67-5.11,7.95-7.31,6.14-3.7,64.32-38.56,74.19-54.14,2.15-3.39,3.37-8.31.32-10.25-14.23-9.02-112.31,42.34-132.83,54.5-7.21,10.63-13.46,9.99-19.89,5.92-10.84-6.87-18.07-20.95-7.34-37.89,10.52-16.6,55.93-64.29,90.85-93.92,15.17-12.71,34.38-10.04,47.59-1.66,11.86,7.51,17.23,18.52,11.01,28.34-1.72,2.71-4.54,5.67-8.93,8.11-2.31,1.39-5.16,2.9-7.47,4.29,28.54-7.56,55.89-8.76,74.52,3.05,18.64,11.81,18.95,30.05,10.25,48.29,27.21-6.98,53.8-7.71,71.42,3.46,15.93,10.09,23.16,29.4,11.14,48.37-13.31,21.01-52.67,46.41-62.77,62.33-2.58,4.06-4.99,10.13-.93,12.71,11.52,7.3,52.72-20.26,61.82-26.37,5.26-3.79,11.63-2.61,16.03.18,5.76,3.65,9.37,10.69,5.51,16.79-.43.68-1.2,1.14-1.63,1.82-29.44,30.73-93.32,59.59-131.95,35.12-24.4-15.46-20.2-40.82-10.11-56.74,13.53-21.35,57.76-57.43,62.05-64.21.65-1.02.95-2.25-.4-3.11-9.83-6.23-76.33,34.27-106.2,51.43-16.44,10.96-32.5,9.32-43.35,2.46Zm-817.51-484.54c-19.51,0-35.32,15.81-35.32,35.32s15.81,35.32,35.32,35.32,35.32-15.81,35.32-35.32-15.81-35.32-35.32-35.32Zm-551.72,340.94c-4.53-8.95-14.78-14.1-26.95-7.95-3.94,1.99-13.33-11.24-18.03-20.55-22.81-45.1-38.44-203.98-39.83-233.4-.02-3.59-.75-6.81-2.02-9.32-6.34-12.53-23.57-14.6-37.89-7.36-26.49,13.4-25.06,51.78-22.27,72.4-7.84,50.27-20.49,107.91-42.16,154.84-30.87-42.38-76.64-85.76-111.77-117,3.93-3.79,8.94-7.22,14.67-10.11,15.03-7.61,17.12-23.04,11.51-34.14-5.25-10.38-17.66-17.14-32.7-9.54-.19.1-.38.19-.57.29-40.93,20.79-69.45,59.94-77.21,105.19l-.83,4.85c-6.1,39.49-1.42,82.53,4.87,122.51,11.96,72.41,38.32,131.72,17.15,142.82-10.35,5.42-16.32,17.15-13.2,28.41,4.29,15.48,22.23,21.42,34.57,15.18,82.69-41.82,50.89-129.58,35.78-216.34-5.72-34.42-13.22-66.14-13.53-93.41,29.04,34.31,70.54,85.25,86.16,127.7-9.09,12.24-10.63,28.76-3.93,42,9.96,19.69,34.21,27.65,53.9,17.69,30.79-15.57,33.87-47.7,24.05-76,15.15-21.6,26.32-50.17,34.1-74.79,5.67,22.76,12.58,44.44,21.45,61.98,21.36,42.24,55.36,62.35,88.3,45.7,18.61-9.42,20.89-22.7,16.36-31.65Zm-374.12-181.37s0,0,0,.01c0,0,0,0,0,0h0Z"/>
      <g>
        <path class="cls-4" d="m1357.44,771.65c5.27-.66,10.14-2.41,14-6.96,6.45.21,11.32,2.23,15.29,5.28-8.31,7.23-18.18,7.33-29.29,1.68Z"/>
        <path class="cls-4" d="m1357.51,770.27c3.26-4.03,5.44-8.58,4.85-14.43,4.74-4.23,9.67-6.09,14.72-6.61-.61,10.77-7.55,17.52-19.57,21.04h0Z"/>
        <path class="cls-4" d="m1355.26,769.03c-4.23-3.09-8.97-5.14-15.05-4.51-4.44-4.51-6.43-9.24-7.02-14.09,11.19.47,18.29,7.08,22.07,18.61Z"/>
        <path class="cls-4" d="m1354.1,769.51c-5.25.77-10.08,2.64-13.83,7.27-6.46-.06-11.37-1.97-15.41-4.94,8.14-7.42,18-7.73,29.24-2.33h0Z"/>
        <path class="cls-4" d="m1353.46,770.79c-3.05,4.18-5,8.82-4.12,14.64-4.52,4.44-9.35,6.53-14.37,7.28.07-10.79,6.66-17.85,18.49-21.93h0Z"/>
        <path class="cls-4" d="m1354.03,772.64c.95,4.94,3.02,9.36,7.95,12.46.11,6.19-1.75,11.09-4.73,15.27-7.95-6.99-8.54-16.4-3.22-27.73Z"/>
        <path class="cls-4" d="m1355.51,772.94c4.45,2.98,9.24,4.84,14.94,3.83,4.84,4.45,7.39,9.26,8.61,14.28-10.72.16-18.37-6.31-23.55-18.12h0Z"/>
        <path class="cls-4" d="m1356.54,769.41c-.65-5.1-2.45-9.89-7.16-13.9.25-6.19,2.38-10.73,5.59-14.34,7.48,8.45,7.52,17.93,1.58,28.24Z"/>
      </g>
    </g>
  </g>
</svg>